<svg width="182" height="160" viewBox="0 0 182 160" fill="none" xmlns="http://www.w3.org/2000/svg">
<path d="M128.156 137.68C138.142 137.68 147.196 135.533 155.316 131.24C163.342 126.853 169.689 120.833 174.356 113.18C178.929 105.433 181.216 96.7067 181.216 87C181.216 77.2933 178.929 68.6133 174.356 60.96C169.689 53.2133 163.342 47.1933 155.316 42.9C147.196 38.5133 138.096 36.32 128.016 36.32C119.522 36.32 111.869 37.8133 105.056 40.8C98.1491 43.7867 92.3624 48.08 87.6958 53.68L102.256 67.12C108.882 59.4667 117.096 55.64 126.896 55.64C132.962 55.64 138.376 56.9933 143.136 59.7C147.896 62.3133 151.629 66 154.336 70.76C156.949 75.52 158.256 80.9333 158.256 87C158.256 93.0667 156.949 98.48 154.336 103.24C151.629 108 147.896 111.733 143.136 114.44C138.376 117.053 132.962 118.36 126.896 118.36C117.096 118.36 108.882 114.487 102.256 106.74L87.6958 120.18C92.3624 125.873 98.1491 130.213 105.056 133.2C111.962 136.187 119.662 137.68 128.156 137.68Z" fill="#FC4A1A"/>
<circle cx="50" cy="86" r="50" fill="#1A2930"/>
<circle cx="50" cy="86" r="20" fill="white"/>
</svg>
